# xmcd
#
# Track frame offsets:
#	150
#	12917
#	26940
#	40327
#	55959
#	70006
#	83771
#	100930
#
# Disc length: 1532 seconds
#
# Revision: 1
# Processed by: cddbd v1.5.2PL0 Copyright (c) Steve Scherf et al.
# Submitted via: audiograbber 1.83.01
#
DISCID=6205fa08
DTITLE=Phil Cohen and Patricia Ford - Long Road 'til Sunrise
DYEAR=2003
DGENRE=Country
TTITLE0=Hard times ain't no stranger
TTITLE1=Your wake-up call
TTITLE2=Kelsey's crazy
TTITLE3=Haert like a lightswitch
TTITLE4=She sits in a room
TTITLE5=You stuck with me
TTITLE6=Distant drum
TTITLE7=Celtic sunrise
EXTD=
EXTT0=
EXTT1=
EXTT2=
EXTT3=
EXTT4=
EXTT5=
EXTT6=
EXTT7=
PLAYORDER=
